<?xml version="1.0" encoding="utf-8"?>
<!-- Generator: Adobe Illustrator 26.3.1, SVG Export Plug-In . SVG Version: 6.00 Build 0)  -->
<svg version="1.1" id="Ebene_1" xmlns="http://www.w3.org/2000/svg" xmlns:xlink="http://www.w3.org/1999/xlink" x="0px" y="0px"
	 viewBox="0 0 256 256" style="enable-background:new 0 0 256 256;" xml:space="preserve">
<style type="text/css">
	.st0{fill:url(#SVGID_1_);}
	.st1{fill:url(#SVGID_00000093892214619362187360000009254114563745543580_);}
	.st2{fill:url(#SVGID_00000059298793066546866480000002199000882147103632_);}
	.st3{fill:url(#SVGID_00000031196579406183591860000001322332640497636798_);}
	.st4{fill:#2945A7;}
</style>
<g>
	<g id="_x32_024">
		<linearGradient id="SVGID_1_" gradientUnits="userSpaceOnUse" x1="108.0541" y1="149.4744" x2="108.0541" y2="195.8129">
			<stop  offset="0" style="stop-color:#A335EE"/>
			<stop  offset="0.1517" style="stop-color:#9F37EE"/>
			<stop  offset="0.3088" style="stop-color:#923BEC"/>
			<stop  offset="0.4686" style="stop-color:#7E43EA"/>
			<stop  offset="0.6301" style="stop-color:#614DE7"/>
			<stop  offset="0.793" style="stop-color:#3B5BE3"/>
			<stop  offset="0.9548" style="stop-color:#0E6BDE"/>
			<stop  offset="1" style="stop-color:#0070DD"/>
		</linearGradient>
		<path class="st0" d="M121.9,156.9c-2.8-5.8-8.3-7.4-14.3-7.4c-5.9,0-10.9,2-13.9,7.5c-2.7,4.9-3.3,10.3-3.3,13.3
			c0,7.8,0.6,13,3.2,17.9c3.1,5.7,8.2,7.7,14.2,7.7c6,0,11.5-1.7,14.2-7.5C126.9,177.9,126.9,167.2,121.9,156.9z M114.8,173.7
			c-0.1,2,0.1,4.7-0.8,7.4c-1,3-2.9,4.8-6.2,4.8c-3.3,0-5.4-1.8-6.2-4.8c-1.4-5.7-1.3-11.5,0.2-17.2c0.8-3,2.9-4.4,6-4.4
			c3.1,0,5.1,1.4,6,4.3C114.9,166.8,114.8,169.9,114.8,173.7z"/>
		
			<linearGradient id="SVGID_00000047745008849778064320000015785866462166487468_" gradientUnits="userSpaceOnUse" x1="185.0153" y1="150.8829" x2="185.0153" y2="196.0831">
			<stop  offset="0" style="stop-color:#A335EE"/>
			<stop  offset="0.1517" style="stop-color:#9F37EE"/>
			<stop  offset="0.3088" style="stop-color:#923BEC"/>
			<stop  offset="0.4686" style="stop-color:#7E43EA"/>
			<stop  offset="0.6301" style="stop-color:#614DE7"/>
			<stop  offset="0.793" style="stop-color:#3B5BE3"/>
			<stop  offset="0.9548" style="stop-color:#0E6BDE"/>
			<stop  offset="1" style="stop-color:#0070DD"/>
		</linearGradient>
		<path style="fill:url(#SVGID_00000047745008849778064320000015785866462166487468_);" d="M203.2,182.3c0.4-1.9,0.5-4.1-2.7-3.6
			c-1.8,0.3-2.2-0.7-2.2-2.3c0.1-3.9,0-7.8,0-11.6v-7c0-6.9,0-6.6-6.9-7c-3.8-0.2-6.1,1.1-8.1,4.2c-4.3,6.7-8.9,13.3-13.8,19.7
			c-2.5,3.2-3.2,6.5-3,10.4c0.1,2.1,0.7,2.6,2.7,2.6c4.4-0.1,8.8,0,13.2,0c5,0,5.2,0,5.1,5.1c-0.1,2.6,0.8,3.5,3.3,3.1
			c0.8-0.1,1.6,0,2.3,0c5.1,0,5.1,0,5.2-5c0-1.4-0.6-3.4,2-3.2C205.3,188,202.8,184.3,203.2,182.3z M186.3,178.8
			c-2.5-0.1-5.1,0-8.5,0c3.6-5.4,6.8-10.2,9.9-15c0.2,0.1,0.5,0.1,0.7,0.2c0,4.3,0,8.6,0,13C188.4,178.5,187.6,178.8,186.3,178.8z"
			/>
		
			<linearGradient id="SVGID_00000124877072657350385490000016351900549218683306_" gradientUnits="userSpaceOnUse" x1="145.856" y1="149.2692" x2="145.856" y2="195.3673">
			<stop  offset="0" style="stop-color:#A335EE"/>
			<stop  offset="0.1517" style="stop-color:#9F37EE"/>
			<stop  offset="0.3088" style="stop-color:#923BEC"/>
			<stop  offset="0.4686" style="stop-color:#7E43EA"/>
			<stop  offset="0.6301" style="stop-color:#614DE7"/>
			<stop  offset="0.793" style="stop-color:#3B5BE3"/>
			<stop  offset="0.9548" style="stop-color:#0E6BDE"/>
			<stop  offset="1" style="stop-color:#0070DD"/>
		</linearGradient>
		<path style="fill:url(#SVGID_00000124877072657350385490000016351900549218683306_);" d="M145.1,186.7c4.3,0,7.8,0,11.3,0
			c5.4,0,5.4,0,5.2,5.8c0,1.4,0.3,2.9-2,2.9c-9-0.1-18.1,0-27.1,0c-0.9,0-2,0.1-2-1.2c0-3.2-0.9-6.4,2.6-9
			c5.3-3.9,10.4-8.1,14.3-13.5c1.9-2.6,3.3-5.3,2.9-8.6c-0.3-2.4-1.4-4.2-4-4.5c-2.5-0.3-4.7,0.8-5,3.2c-0.6,3.6-2.8,3.5-5.5,3.5
			c-6.3-0.1-6.6-0.5-4.3-6.5c2.9-7.7,12.5-11.4,21.2-8.2c7.2,2.6,10.3,10.8,7.2,19.1c-2.2,5.9-6.7,10-11.3,14.1
			C147.6,184.4,146.6,185.3,145.1,186.7z"/>
		
			<linearGradient id="SVGID_00000147189822601455066260000013727261253682198450_" gradientUnits="userSpaceOnUse" x1="69.8736" y1="149.2913" x2="69.8736" y2="195.3779">
			<stop  offset="0" style="stop-color:#A335EE"/>
			<stop  offset="0.1517" style="stop-color:#9F37EE"/>
			<stop  offset="0.3088" style="stop-color:#923BEC"/>
			<stop  offset="0.4686" style="stop-color:#7E43EA"/>
			<stop  offset="0.6301" style="stop-color:#614DE7"/>
			<stop  offset="0.793" style="stop-color:#3B5BE3"/>
			<stop  offset="0.9548" style="stop-color:#0E6BDE"/>
			<stop  offset="1" style="stop-color:#0070DD"/>
		</linearGradient>
		<path style="fill:url(#SVGID_00000147189822601455066260000013727261253682198450_);" d="M69,186.7c5.2,0,9.5,0.1,13.7,0
			c2.2-0.1,3.1,0.7,2.8,2.9c-0.1,1.1-0.1,2.3,0,3.5c0.2,1.9-0.7,2.4-2.5,2.4c-8.8-0.1-17.6-0.1-26.4,0c-1.9,0-2.3-0.7-2.4-2.5
			c-0.2-3.5,0.4-6.3,3.7-8.6c4.9-3.6,9.5-7.5,13.2-12.5c1.8-2.4,3.3-5,3.2-8.1c-0.1-2.5-0.9-4.6-3.8-5.1c-2.9-0.5-4.6,0.9-5.6,3.5
			c-0.4,1.1,0.2,2.9-1.8,3c-2.8,0-5.7,0.1-8.5-0.3c-0.9-0.1-0.4-1.6-0.2-2.4c1-6,4.1-10.4,10.1-12c6.1-1.7,12.3-1.6,17,3.4
			c4.4,4.6,4.4,10.3,2.3,16c-2.3,6.4-7.5,10.7-12.4,15.1C70.7,185.2,70.2,185.6,69,186.7z"/>
	</g>
	<g id="top-experte">
		<path class="st4" d="M39,106.5c-8.3,0-14.6,6.2-14.6,14.5c0,8.2,6.3,14.5,14.5,14.6c8.2,0.1,14.6-6.2,14.6-14.5
			C53.6,112.6,47.5,106.5,39,106.5z M37.4,128.9c-0.5-0.1-1.1-0.2-1.6-0.5c-3-1.4-4.6-4.9-4.1-9c0.4-3.4,2.5-5.8,5.8-6.5
			c5-1.1,8.9,2.4,8.9,8C46.4,126.6,42.8,129.9,37.4,128.9z"/>
		<path class="st4" d="M210.4,134.4c-1.8-3.1-3.6-6.1-5.4-9.2c-0.4-0.7-0.7-1.1,0.4-1.6c3.9-1.8,5.6-4.9,5.1-9
			c-0.5-3.9-2.9-6.6-7.1-7.4c-4.7-0.8-9.4-0.2-14.1-0.4c-0.8,0-0.7,0.5-0.7,1c0,8.8,0,17.5,0,26.3c0,0.8,0.3,1.1,1.1,1.1
			c1.4-0.1,2.8-0.1,4.2,0c1.3,0.1,1.8-0.2,1.8-1.7c-0.1-2.4-0.1-4.8,0-7.2c0-0.6-0.6-1.6,0.6-1.8c1.1-0.3,1.3,0.7,1.6,1.4
			c1.5,2.7,3,5.5,4.5,8.2c0.3,0.6,0.6,1.1,1.5,1.1c2.2-0.1,4.5,0,6.9,0C210.6,134.8,210.5,134.6,210.4,134.4z M200.5,119.5
			c-4.9,0.5-4.9,0.5-4.9-4.2c0-2.6,0-2.6,2.9-2.6c0.7,0,1.4-0.1,2,0c2,0.2,3,1.4,2.9,3.5C203.4,118.2,202.4,119.3,200.5,119.5z"/>
		<path class="st4" d="M111.4,106.9c2.6,0,4.9,0,7.3,0c0.8,0,1,0.5,1.4,1c1.6,2.4,3.2,4.8,5,7.4c1.4-2.5,2.8-4.7,4.1-7.1
			c0.6-1.1,1.3-1.4,2.5-1.4c2,0.1,4,0,6.3,0c-1.9,3-3.7,5.8-5.4,8.6c-1.2,1.9-3.4,3.7-3.2,5.8c0.2,1.9,2.1,3.7,3.4,5.6
			c1.8,2.7,3.6,5.4,5.6,8.4c-2.8,0-5.3,0-7.8,0c-0.7,0-0.8-0.7-1.1-1.1c-1.6-2.4-3.2-4.8-4.9-7.4c-1.4,2.4-2.8,4.6-4,6.9
			c-0.7,1.4-1.6,1.8-3,1.7c-1.9-0.1-3.8,0-6,0c2.2-3.5,4-6.9,6.3-9.9c2.5-3.2,2.7-5.7-0.1-8.8c-2.3-2.7-4.1-5.9-6.1-8.9
			C111.6,107.4,111.5,107.3,111.4,106.9z"/>
		<path class="st4" d="M71.6,107.2c-4.2-0.8-8.5-0.1-12.8-0.4c-1.2-0.1-1.5,0.3-1.5,1.5c0.1,4.2,0,8.4,0,12.7c0,2.9,0,5.9,0,8.8
			c0,1.7-0.6,4.1,0.3,5c1.1,1.1,3.5,0.2,5.3,0.4c1.1,0.1,1.5-0.2,1.5-1.4c-0.1-2.4,0-4.8,0-7.2c0-1.2,0.3-1.6,1.5-1.6
			c1.7,0.1,3.4,0,5.1-0.2c4.7-0.6,7.8-4,8-8.6C79.1,111.5,76.4,108.1,71.6,107.2z M71.8,116.3c-0.1,2.2-1.3,3.1-4,3.2
			c-3.4,0-3.4,0-3.4-3.6c0-3.8,0-3.8,3.8-3.4C70.7,112.7,71.9,113.9,71.8,116.3z"/>
		<path class="st4" d="M156.1,107.2c-2.5-0.6-5-0.2-7.1-0.3c-2.2,0-4,0.1-5.7,0c-1.4-0.1-1.7,0.3-1.7,1.7c0.1,7.1,0,14.2,0,21.3
			c0,1.7-0.6,4.1,0.3,5c1.1,1.1,3.5,0.2,5.3,0.4c1.1,0.1,1.5-0.2,1.5-1.4c-0.1-2.4,0-4.8-0.1-7.2c0-1.2,0.3-1.6,1.5-1.6
			c1.8,0.1,3.6,0,5.3-0.2c4.6-0.6,7.7-4,7.8-8.5C163.3,111.6,160.7,108.2,156.1,107.2z M156,116.3c-0.1,2.1-1.3,3.1-3.9,3.1
			c-3.6,0-3.6,0-3.6-3.4c0-3.9,0-3.9,3.9-3.5C155,112.7,156.1,114,156,116.3z"/>
		<path class="st4" d="M238.7,121c0-4.2,0-8.3,0-12.5c0-1.2,0.2-1.7,1.6-1.7c4.8,0.1,9.6,0.1,14.3,0c1.2,0,1.5,0.4,1.5,1.5
			c0,4.1,0,4.1-4.1,4.1c-1.7,0-3.4,0-5.1,0c-0.9,0-1.1,0.3-1.2,1.2c-0.3,4.5-0.3,4.5,4.1,4.5c1.3,0,2.7,0,4,0c0.6,0,1.1,0.1,1.1,0.9
			c0,1.2,0,2.5,0,3.7c0,1-0.7,0.9-1.3,0.9c-2.2,0-4.4,0.1-6.6,0c-1.1,0-1.3,0.3-1.3,1.4c-0.1,4.8-0.2,4.8,4.7,4.8c1.3,0,2.7,0,4,0
			c0.2,0,0.5,0,0.7,0c1.2,0,0.9,0.1,0.9,4.1c0,0.6,0.3,1.5-0.9,1.5c-5.1,0-10.3,0-15.4,0c-1.1,0-0.9-0.7-0.9-1.3
			C238.7,129.6,238.7,125.3,238.7,121z"/>
		<path class="st4" d="M91.2,120.9c0-4.2,0-8.5,0-12.7c0-1.1,0.3-1.4,1.4-1.4c4.8,0.1,9.7,0.1,14.5,0c1.1,0,1.4,0.2,1.4,1.4
			c0,4.2,0.1,4.2-4.2,4.2c-1.7,0-3.3,0-5,0c-0.4,0-1.2-0.2-1.2,0.5c-0.1,1.5-0.1,3.1,0,4.6c0,0.7,0.7,0.5,1.1,0.5c2.2,0,4.4,0,6.6,0
			c1,0,1.4,0.2,1.4,1.3c0.1,4.1,0.2,4.1-3.9,4.1c-1.3,0-2.7,0-4,0c-0.9,0-1.2,0.3-1.3,1.2c-0.2,4.9-0.3,4.9,4.6,4.9
			c1.6,0,3.2-0.3,4.8,0.1c1.3,0,1.1,2.3,1,3.8c0,0.7,0.1,1.8-1,1.8c-5.1,0-10.2,0-15.3,0c-1.2,0-1.1-0.6-1.1-1.4
			C91.2,129.5,91.2,125.2,91.2,120.9z"/>
		<path class="st4" d="M166.9,121.1c0-4.3,0-8.6,0-12.9c0-1,0.2-1.4,1.3-1.4c5,0.1,9.9,0,14.9,0c0.8,0,1.2,0.1,1.2,1.1
			c0.2,4.5,0.3,4.5-4.2,4.5c-1.6,0-3.2,0.1-4.8,0c-1.2-0.1-1.4,0.4-1.4,1.5c0,4.2-0.1,4.2,4,4.2c0.4,0,0.9,0,1.3,0
			c4.1,0,4,0,3.9,4.1c0,1.1-0.4,1.3-1.4,1.3c-2.1-0.1-4.2,0-6.2,0c-1.1,0-1.6,0.2-1.6,1.5c0,4.7-0.1,4.7,4.6,4.7c0.6,0,1.1,0,1.7,0
			c4.5,0,4.5,0,4.1,4.6c-0.1,0.8-0.4,1-1.1,1c-5,0-10-0.1-15.1,0c-1.2,0-1.2-0.6-1.2-1.5C166.9,129.5,166.9,125.3,166.9,121.1z"/>
		<path class="st4" d="M7.7,123.8c0-3.3,0-6.6,0-9.9c0-1.1-0.3-1.5-1.4-1.5c-1.6,0.1-3.3,0-5,0c-1.9,0-1.3-1.5-1.1-2.2
			c0.2-1.1-1.3-3.2,1.1-3.3c6.6-0.2,13.1-0.1,19.7-0.1c0.8,0,1.1,0.2,1.2,1.1c0.2,4.5,0.3,4.5-4.2,4.5c-3.3,0-3.3,0-3.3,3.3
			c0,5.9,0,11.8,0,17.6c0,1.4-0.2,2-1.8,1.8c-1.7-0.2-3.9,0.7-4.9-0.4c-0.8-0.9-0.3-3.1-0.3-4.8C7.7,128,7.7,125.9,7.7,123.8z"/>
		<path class="st4" d="M221.1,123.8c0-3.3-0.1-6.6,0-9.9c0-1.2-0.4-1.5-1.5-1.4c-1.6,0.1-3.3,0-5,0c-0.9,0-1.1-0.3-1.2-1.2
			c-0.3-4.4-0.3-4.4,4.1-4.4c5.5,0,10.9,0,16.4,0c1.2,0,1.5,0.3,1.5,1.5c0,4.1,0,4.1-4.1,4.1c-3.4,0-3.4,0-3.4,3.5
			c0,5.9,0,11.8,0,17.6c0,1.3-0.3,1.7-1.6,1.6c-1.7-0.1-3.9,0.5-5-0.3c-1.1-0.9-0.3-3.2-0.3-4.9C221,127.9,221.1,125.8,221.1,123.8z
			"/>
	</g>
	<g id="listando">
		<path class="st4" d="M85.8,76.8c0-5.1,0-10.3,0-15.4c0-1.1-0.3-1.5-1.4-1.5c-10.2,0-20.5,0-30.7,0c-1,0-1.5,0.1-1.5,1.4
			c0.1,5.4-0.1,10.8,0.1,16.2c0.2,8.6,7,15.6,15.7,15.9c5.5,0.2,11,0.1,16.5,0.2c1.2,0,1.4-0.5,1.4-1.5C85.7,87,85.8,81.9,85.8,76.8
			z M77.1,87.9c-2.8,0-5.6,0.1-8.5,0c-6.1-0.2-10.8-5-10.9-11.1c0-1.3,0-2.6,0-3.9c0-1.5,0-2.9,0-4.4c0-1.8,1-2.9,2.5-3
			c1.6-0.1,2.7,1.1,2.7,3c0,2.5,0,4.9,0,7.4c0,4.5,2.3,6.7,6.8,6.7c2.4,0,4.8,0,7.2,0c2,0,3.2,1.1,3.2,2.8
			C80.2,86.9,79,87.9,77.1,87.9z"/>
		<path class="st4" d="M184.6,66.4c0-1.6-1.2-2.4-2.7-2.1c-1.3,0.2-1.6,1.1-1.6,2.3c0,2.5,0,4.9,0,7.6c-4.8-4.7-11.3-2.4-12.7,3.5
			c-0.6,2.4-0.5,4.7,0.4,7c1.4,3.7,4.6,5.4,8.5,4.6c1.4-0.3,2.5-1.2,3.7-2.3c0,1.8,1,2.5,2.5,2.4c1.4-0.1,1.9-1,2-2.2
			C184.6,80.2,184.6,73.3,184.6,66.4z M175.2,85.9c-0.1,0-0.1,0-0.2,0c-2.5-0.4-3.9-3.4-3.2-7c0.5-2.8,2.5-4.2,5.1-3.7
			c2.1,0.4,3.3,2.4,3.3,5.5C180.2,84.3,178.2,86.3,175.2,85.9z"/>
		<path class="st4" d="M196.8,71.6c-5.3,0.1-8.8,3.6-8.8,8.8c0,5.4,3.5,9.1,8.7,9.1c5.3,0,8.9-3.6,8.9-8.9
			C205.5,75.2,202,71.5,196.8,71.6z M196.8,86c-2.6,0-4.2-2-4.3-5.3c-0.1-3.3,1.6-5.5,4.3-5.6c2.7,0,4.4,2.1,4.4,5.4
			C201.2,83.8,199.4,86,196.8,86z"/>
		<path class="st4" d="M143.4,78c-0.1-3.3-1.6-5.3-4.4-6c-3-0.7-5.8-0.3-8.6,0.8c-0.5,0.2-0.9,0.4-1.1,0.9c-0.4,0.7-0.4,1.4,0.2,2.1
			c0.5,0.6,1.1,0.7,1.8,0.4c1.9-0.8,3.8-1.3,5.9-0.9c1.6,0.3,2.1,1.4,2,2.8c0,1.6-1.3,0.8-2.1,0.9c-1.8,0.2-3.5,0.2-5.3,0.6
			c-2,0.5-3.5,1.5-3.8,3.7c-0.3,2.2,0.6,3.9,2.4,5.2c2.6,1.8,5.9,1.3,8.8-1.3c0.1,1.7,0.9,2.4,2.4,2.2c1.5-0.1,1.8-1.2,1.8-2.5
			C143.4,83.9,143.5,81,143.4,78z M138.8,84.2c-0.9,1.9-3.1,2.7-4.9,1.9c-1-0.5-1.5-1.2-1.5-2.3c0-1.1,0.8-1.6,1.7-1.8
			c1-0.2,2-0.3,3.1-0.4C139.4,81.5,139.8,82.1,138.8,84.2z"/>
		<path class="st4" d="M152.3,74.2c1.6-1.9,3.6-2.6,5.9-2.5c3.3,0.1,5.3,1.9,5.5,5.2c0.3,3.5,0.2,7,0.1,10.5c-0.1,1.3-0.8,2-2.1,2
			c-1.4,0-2.2-0.7-2.3-2.1c-0.1-2.6,0-5.3,0-7.9c0-3-0.9-4.2-3.1-4.2c-2.3,0-3.9,1.7-3.9,4.3c0,2.4,0,4.9,0,7.3
			c0,1.5-0.5,2.4-2.3,2.4c-1.8,0-2.2-1-2.2-2.5c0-4,0-8,0-11.9c0-1.4,0.1-2.8,1.8-3.1C151.3,71.4,152,72.5,152.3,74.2z"/>
		<path class="st4" d="M105.6,71.7c1.6,0,3.2,0.3,4.6,1c1,0.5,2,1,1.4,2.3c-0.6,1.4-1.7,1.1-2.8,0.7c-1.4-0.5-2.8-1.1-4.3-0.8
			c-1.1,0.2-2.2,0.5-2.4,1.9c-0.1,1.5,1,1.8,2.1,2c1.4,0.3,2.9,0.5,4.3,0.9c1.8,0.5,3.3,1.5,3.5,3.5c0.3,2.1-0.4,4-2.3,5
			c-3.7,1.9-7.4,1.5-11.1-0.2c-1-0.5-1.3-1.4-0.8-2.3c0.5-0.9,1.3-1,2.2-0.5c1.9,0.9,3.9,1.3,6.1,0.9c1-0.2,1.9-0.6,2-1.8
			c0-1.2-0.8-1.5-1.8-1.7c-1.5-0.3-3-0.6-4.5-1c-1.9-0.5-3.4-1.5-3.7-3.6c-0.3-2.3,0.6-4.1,2.6-5.2C102,72,103.5,71.7,105.6,71.7z"
			/>
		<path class="st4" d="M116.5,80.2c0-0.7-0.1-1.4,0-2c0.2-1.8,0-3.1-2.3-3c-1,0.1-1.3-0.7-1.3-1.6c0-1,0.5-1.6,1.4-1.5
			c2.2,0.2,2.4-1,2.2-2.7c-0.2-1.5,0.2-2.7,2.1-2.7c1.6,0,2.3,0.8,2.3,2.8c0,2.5,0,2.5,2.5,2.5c0.7,0,1.5-0.1,2.1,0.3
			c0.7,0.4,0.8,1.1,0.6,1.8c-0.1,0.7-0.4,1.1-1.2,1.2c-0.4,0-0.7,0.1-1.1,0.1c-3.1,0.3-3.1,0.3-3.1,3.3c0,1.3,0,2.6,0,3.9
			c0.1,2.4,1,3.3,3.5,3.1c1-0.1,2.2-0.7,2.4,1c0.2,1.5-0.5,2.3-2.1,2.6c-5.2,0.8-8.1-1.6-8.1-6.8C116.5,81.7,116.5,81,116.5,80.2z"
			/>
		<path class="st4" d="M94.2,80.4c0,2.2,0,4.4,0,6.6c0,1.4-0.6,2.2-2.1,2.2c-1.5,0.1-2.3-0.7-2.3-2c-0.1-4.5-0.1-8.9,0-13.4
			c0-1.4,0.9-2.2,2.3-2.1c1.3,0.1,2.1,0.8,2.1,2.2C94.1,76.1,94.2,78.3,94.2,80.4z"/>
		<path class="st4" d="M91.9,63.7c1.5,0,2.7,1.1,2.7,2.6c0,1.5-1.2,2.7-2.7,2.7c-1.5,0-2.5-1.1-2.6-2.5
			C89.3,64.9,90.3,63.7,91.9,63.7z"/>
	</g>
</g>
</svg>
