<?xml version="1.0" encoding="utf-8"?>
<!-- Generator: Adobe Illustrator 26.3.1, SVG Export Plug-In . SVG Version: 6.00 Build 0)  -->
<svg version="1.1" id="Ebene_1" xmlns="http://www.w3.org/2000/svg" xmlns:xlink="http://www.w3.org/1999/xlink" x="0px" y="0px"
	 viewBox="0 0 256 256" style="enable-background:new 0 0 256 256;" xml:space="preserve">
<style type="text/css">
	.st0{fill:#1D4B00;}
</style>
<path class="st0" d="M127.1,227.5c-5.4,5-10.1,9.9-15.4,14.2c-18.7,15.2-39.6,18.5-61.6,9.1c-22.4-9.6-33.9-28.3-34.4-51.8
	c-1-47.4-1.1-94.8,0-142.1c0.7-32,24.9-55.1,55.9-56.6c30-1.5,55.4,20.1,60.4,51.3c0.5,3.2,0.9,6.4,1.5,10.5
	c24.2-6.1,45.9-2.1,62.8,16.8c16.8,18.7,19.2,40.3,10.3,64.1c19.9,10.7,32.5,26.8,34.2,49.9c1.3,16.7-4,31.1-14.9,43.8
	C204.7,260.9,157.7,266.2,127.1,227.5z M34.4,127.6c0.1,0,0.1,0,0.2,0c0,23.2-0.5,46.4,0.2,69.6c0.5,16.2,7.4,29.4,23.1,36
	c15.7,6.7,30.1,3.8,42.8-7.5c5.1-4.5,10-9.3,14.6-14.2c1.3-1.4,2.6-4.1,2.2-5.7c-5.4-18.3-3.8-37-3.9-55.6c-0.2-30,0.2-60-0.1-90
	c-0.2-20.3-12.1-35.7-29.8-39.7C64.9,16.2,46.6,24,39.4,40.7c-3.2,7.4-4.5,16-4.8,24.2C34,85.7,34.4,106.6,34.4,127.6z M133.9,190.5
	c1,0.6,2.1,1.2,3.1,1.8c2.4-3.2,4.6-6.7,7.3-9.6c13.5-14.2,28.1-27.6,40.7-42.6c11.2-13.3,9.8-32.3-1-46.3
	c-10.3-13.4-28.2-18.7-44.1-13.3c-4.9,1.7-7.2,4-7.1,9.7c0.3,29.7,0.1,59.5,0.2,89.3C133.1,183.1,133.6,186.8,133.9,190.5z
	 M185,236.6c15.4-0.1,31.5-12.6,35.8-29.7c4.4-17.6-3.4-35.9-19-44.6c-3.7-2.1-6.8-3.3-10.6,0.6c-15.1,15.5-30.5,30.8-45.9,46
	c-3.3,3.2-3.1,5.6-0.6,9C154.2,230.2,166.8,236.4,185,236.6z"/>
</svg>
