<?xml version="1.0" encoding="utf-8"?>
<!-- Generator: Adobe Illustrator 26.3.1, SVG Export Plug-In . SVG Version: 6.00 Build 0)  -->
<svg version="1.1" id="Ebene_1" xmlns="http://www.w3.org/2000/svg" xmlns:xlink="http://www.w3.org/1999/xlink" x="0px" y="0px"
	 viewBox="0 0 256.2 75.7" style="enable-background:new 0 0 256.2 75.7;" xml:space="preserve">
<style type="text/css">
	.st0{fill:#2945A7;}
</style>
<g>
	<g id="top-experte">
		<path class="st0" d="M39.1,46.6c-8.3,0-14.6,6.2-14.6,14.5c0,8.2,6.3,14.5,14.5,14.6s14.6-6.2,14.6-14.5
			C53.7,52.7,47.6,46.6,39.1,46.6z M37.5,69c-0.5-0.1-1.1-0.2-1.6-0.5c-3-1.4-4.6-4.9-4.1-9c0.4-3.4,2.5-5.8,5.8-6.5
			c5-1.1,8.9,2.4,8.9,8C46.5,66.7,42.9,70,37.5,69z"/>
		<path class="st0" d="M210.5,74.5c-1.8-3.1-3.6-6.1-5.4-9.2c-0.4-0.7-0.7-1.1,0.4-1.6c3.9-1.8,5.6-4.9,5.1-9
			c-0.5-3.9-2.9-6.6-7.1-7.4c-4.7-0.8-9.4-0.2-14.1-0.4c-0.8,0-0.7,0.5-0.7,1c0,8.8,0,17.5,0,26.3c0,0.8,0.3,1.1,1.1,1.1
			c1.4-0.1,2.8-0.1,4.2,0c1.3,0.1,1.8-0.2,1.8-1.7c-0.1-2.4-0.1-4.8,0-7.2c0-0.6-0.6-1.6,0.6-1.8c1.1-0.3,1.3,0.7,1.6,1.4
			c1.5,2.7,3,5.5,4.5,8.2c0.3,0.6,0.6,1.1,1.5,1.1c2.2-0.1,4.5,0,6.9,0C210.7,74.9,210.6,74.7,210.5,74.5z M200.6,59.6
			c-4.9,0.5-4.9,0.5-4.9-4.2c0-2.6,0-2.6,2.9-2.6c0.7,0,1.4-0.1,2,0c2,0.2,3,1.4,2.9,3.5C203.5,58.3,202.5,59.4,200.6,59.6z"/>
		<path class="st0" d="M111.5,47c2.6,0,4.9,0,7.3,0c0.8,0,1,0.5,1.4,1c1.6,2.4,3.2,4.8,5,7.4c1.4-2.5,2.8-4.7,4.1-7.1
			c0.6-1.1,1.3-1.4,2.5-1.4c2,0.1,4,0,6.3,0c-1.9,3-3.7,5.8-5.4,8.6c-1.2,1.9-3.4,3.7-3.2,5.8c0.2,1.9,2.1,3.7,3.4,5.6
			c1.8,2.7,3.6,5.4,5.6,8.4c-2.8,0-5.3,0-7.8,0c-0.7,0-0.8-0.7-1.1-1.1c-1.6-2.4-3.2-4.8-4.9-7.4c-1.4,2.4-2.8,4.6-4,6.9
			c-0.7,1.4-1.6,1.8-3,1.7c-1.9-0.1-3.8,0-6,0c2.2-3.5,4-6.9,6.3-9.9c2.5-3.2,2.7-5.7-0.1-8.8c-2.3-2.7-4.1-5.9-6.1-8.9
			C111.7,47.5,111.6,47.4,111.5,47z"/>
		<path class="st0" d="M71.7,47.3c-4.2-0.8-8.5-0.1-12.8-0.4c-1.2-0.1-1.5,0.3-1.5,1.5c0.1,4.2,0,8.4,0,12.7c0,2.9,0,5.9,0,8.8
			c0,1.7-0.6,4.1,0.3,5c1.1,1.1,3.5,0.2,5.3,0.4c1.1,0.1,1.5-0.2,1.5-1.4c-0.1-2.4,0-4.8,0-7.2c0-1.2,0.3-1.6,1.5-1.6
			c1.7,0.1,3.4,0,5.1-0.2c4.7-0.6,7.8-4,8-8.6C79.2,51.6,76.5,48.2,71.7,47.3z M71.9,56.4c-0.1,2.2-1.3,3.1-4,3.2
			c-3.4,0-3.4,0-3.4-3.6c0-3.8,0-3.8,3.8-3.4C70.8,52.8,72,54,71.9,56.4z"/>
		<path class="st0" d="M156.2,47.3c-2.5-0.6-5-0.2-7.1-0.3c-2.2,0-4,0.1-5.7,0c-1.4-0.1-1.7,0.3-1.7,1.7c0.1,7.1,0,14.2,0,21.3
			c0,1.7-0.6,4.1,0.3,5c1.1,1.1,3.5,0.2,5.3,0.4c1.1,0.1,1.5-0.2,1.5-1.4c-0.1-2.4,0-4.8-0.1-7.2c0-1.2,0.3-1.6,1.5-1.6
			c1.8,0.1,3.6,0,5.3-0.2c4.6-0.6,7.7-4,7.8-8.5C163.4,51.7,160.8,48.3,156.2,47.3z M156.1,56.4c-0.1,2.1-1.3,3.1-3.9,3.1
			c-3.6,0-3.6,0-3.6-3.4c0-3.9,0-3.9,3.9-3.5C155.1,52.8,156.2,54.1,156.1,56.4z"/>
		<path class="st0" d="M238.8,61.1c0-4.2,0-8.3,0-12.5c0-1.2,0.2-1.7,1.6-1.7c4.8,0.1,9.6,0.1,14.3,0c1.2,0,1.5,0.4,1.5,1.5
			c0,4.1,0,4.1-4.1,4.1c-1.7,0-3.4,0-5.1,0c-0.9,0-1.1,0.3-1.2,1.2c-0.3,4.5-0.3,4.5,4.1,4.5c1.3,0,2.7,0,4,0c0.6,0,1.1,0.1,1.1,0.9
			c0,1.2,0,2.5,0,3.7c0,1-0.7,0.9-1.3,0.9c-2.2,0-4.4,0.1-6.6,0c-1.1,0-1.3,0.3-1.3,1.4c-0.1,4.8-0.2,4.8,4.7,4.8c1.3,0,2.7,0,4,0
			c0.2,0,0.5,0,0.7,0c1.2,0,0.9,0.1,0.9,4.1c0,0.6,0.3,1.5-0.9,1.5c-5.1,0-10.3,0-15.4,0c-1.1,0-0.9-0.7-0.9-1.3
			C238.8,69.7,238.8,65.4,238.8,61.1z"/>
		<path class="st0" d="M91.3,61c0-4.2,0-8.5,0-12.7c0-1.1,0.3-1.4,1.4-1.4c4.8,0.1,9.7,0.1,14.5,0c1.1,0,1.4,0.2,1.4,1.4
			c0,4.2,0.1,4.2-4.2,4.2c-1.7,0-3.3,0-5,0c-0.4,0-1.2-0.2-1.2,0.5c-0.1,1.5-0.1,3.1,0,4.6c0,0.7,0.7,0.5,1.1,0.5c2.2,0,4.4,0,6.6,0
			c1,0,1.4,0.2,1.4,1.3c0.1,4.1,0.2,4.1-3.9,4.1c-1.3,0-2.7,0-4,0c-0.9,0-1.2,0.3-1.3,1.2c-0.2,4.9-0.3,4.9,4.6,4.9
			c1.6,0,3.2-0.3,4.8,0.1c1.3,0,1.1,2.3,1,3.8c0,0.7,0.1,1.8-1,1.8c-5.1,0-10.2,0-15.3,0c-1.2,0-1.1-0.6-1.1-1.4
			C91.3,69.6,91.3,65.3,91.3,61z"/>
		<path class="st0" d="M167,61.2c0-4.3,0-8.6,0-12.9c0-1,0.2-1.4,1.3-1.4c5,0.1,9.9,0,14.9,0c0.8,0,1.2,0.1,1.2,1.1
			c0.2,4.5,0.3,4.5-4.2,4.5c-1.6,0-3.2,0.1-4.8,0c-1.2-0.1-1.4,0.4-1.4,1.5c0,4.2-0.1,4.2,4,4.2c0.4,0,0.9,0,1.3,0
			c4.1,0,4,0,3.9,4.1c0,1.1-0.4,1.3-1.4,1.3c-2.1-0.1-4.2,0-6.2,0c-1.1,0-1.6,0.2-1.6,1.5c0,4.7-0.1,4.7,4.6,4.7c0.6,0,1.1,0,1.7,0
			c4.5,0,4.5,0,4.1,4.6c-0.1,0.8-0.4,1-1.1,1c-5,0-10-0.1-15.1,0c-1.2,0-1.2-0.6-1.2-1.5C167,69.6,167,65.4,167,61.2z"/>
		<path class="st0" d="M7.8,63.9c0-3.3,0-6.6,0-9.9c0-1.1-0.3-1.5-1.4-1.5c-1.6,0.1-3.3,0-5,0c-1.9,0-1.3-1.5-1.1-2.2
			C0.5,49.2-1,47.1,1.4,47c6.6-0.2,13.1-0.1,19.7-0.1c0.8,0,1.1,0.2,1.2,1.1c0.2,4.5,0.3,4.5-4.2,4.5c-3.3,0-3.3,0-3.3,3.3
			c0,5.9,0,11.8,0,17.6c0,1.4-0.2,2-1.8,1.8c-1.7-0.2-3.9,0.7-4.9-0.4c-0.8-0.9-0.3-3.1-0.3-4.8C7.8,68.1,7.8,66,7.8,63.9z"/>
		<path class="st0" d="M221.2,63.9c0-3.3-0.1-6.6,0-9.9c0-1.2-0.4-1.5-1.5-1.4c-1.6,0.1-3.3,0-5,0c-0.9,0-1.1-0.3-1.2-1.2
			c-0.3-4.4-0.3-4.4,4.1-4.4c5.5,0,10.9,0,16.4,0c1.2,0,1.5,0.3,1.5,1.5c0,4.1,0,4.1-4.1,4.1c-3.4,0-3.4,0-3.4,3.5
			c0,5.9,0,11.8,0,17.6c0,1.3-0.3,1.7-1.6,1.6c-1.7-0.1-3.9,0.5-5-0.3c-1.1-0.9-0.3-3.2-0.3-4.9C221.1,68,221.2,65.9,221.2,63.9z"/>
	</g>
	<g id="listando">
		<path class="st0" d="M85.9,16.9c0-5.1,0-10.3,0-15.4c0-1.1-0.3-1.5-1.4-1.5C74.3,0,64,0,53.8,0c-1,0-1.5,0.1-1.5,1.4
			c0.1,5.4-0.1,10.8,0.1,16.2c0.2,8.6,7,15.6,15.7,15.9c5.5,0.2,11,0.1,16.5,0.2c1.2,0,1.4-0.5,1.4-1.5C85.8,27.1,85.9,22,85.9,16.9
			z M77.2,28c-2.8,0-5.6,0.1-8.5,0c-6.1-0.2-10.8-5-10.9-11.1c0-1.3,0-2.6,0-3.9c0-1.5,0-2.9,0-4.4c0-1.8,1-2.9,2.5-3
			c1.6-0.1,2.7,1.1,2.7,3c0,2.5,0,4.9,0,7.4c0,4.5,2.3,6.7,6.8,6.7c2.4,0,4.8,0,7.2,0c2,0,3.2,1.1,3.2,2.8C80.3,27,79.1,28,77.2,28z
			"/>
		<path class="st0" d="M184.7,6.5c0-1.6-1.2-2.4-2.7-2.1c-1.3,0.2-1.6,1.1-1.6,2.3c0,2.5,0,4.9,0,7.6c-4.8-4.7-11.3-2.4-12.7,3.5
			c-0.6,2.4-0.5,4.7,0.4,7c1.4,3.7,4.6,5.4,8.5,4.6c1.4-0.3,2.5-1.2,3.7-2.3c0,1.8,1,2.5,2.5,2.4c1.4-0.1,1.9-1,2-2.2
			C184.7,20.3,184.7,13.4,184.7,6.5z M175.3,26c-0.1,0-0.1,0-0.2,0c-2.5-0.4-3.9-3.4-3.2-7c0.5-2.8,2.5-4.2,5.1-3.7
			c2.1,0.4,3.3,2.4,3.3,5.5C180.3,24.4,178.3,26.4,175.3,26z"/>
		<path class="st0" d="M196.9,11.7c-5.3,0.1-8.8,3.6-8.8,8.8c0,5.4,3.5,9.1,8.7,9.1c5.3,0,8.9-3.6,8.9-8.9
			C205.6,15.3,202.1,11.6,196.9,11.7z M196.9,26.1c-2.6,0-4.2-2-4.3-5.3s1.6-5.5,4.3-5.6c2.7,0,4.4,2.1,4.4,5.4
			S199.5,26.1,196.9,26.1z"/>
		<path class="st0" d="M143.5,18.1c-0.1-3.3-1.6-5.3-4.4-6c-3-0.7-5.8-0.3-8.6,0.8c-0.5,0.2-0.9,0.4-1.1,0.9
			c-0.4,0.7-0.4,1.4,0.2,2.1c0.5,0.6,1.1,0.7,1.8,0.4c1.9-0.8,3.8-1.3,5.9-0.9c1.6,0.3,2.1,1.4,2,2.8c0,1.6-1.3,0.8-2.1,0.9
			c-1.8,0.2-3.5,0.2-5.3,0.6c-2,0.5-3.5,1.5-3.8,3.7c-0.3,2.2,0.6,3.9,2.4,5.2c2.6,1.8,5.9,1.3,8.8-1.3c0.1,1.7,0.9,2.4,2.4,2.2
			c1.5-0.1,1.8-1.2,1.8-2.5C143.5,24,143.6,21.1,143.5,18.1z M138.9,24.3c-0.9,1.9-3.1,2.7-4.9,1.9c-1-0.5-1.5-1.2-1.5-2.3
			c0-1.1,0.8-1.6,1.7-1.8c1-0.2,2-0.3,3.1-0.4C139.5,21.6,139.9,22.2,138.9,24.3z"/>
		<path class="st0" d="M152.4,14.3c1.6-1.9,3.6-2.6,5.9-2.5c3.3,0.1,5.3,1.9,5.5,5.2c0.3,3.5,0.2,7,0.1,10.5c-0.1,1.3-0.8,2-2.1,2
			c-1.4,0-2.2-0.7-2.3-2.1c-0.1-2.6,0-5.3,0-7.9c0-3-0.9-4.2-3.1-4.2c-2.3,0-3.9,1.7-3.9,4.3c0,2.4,0,4.9,0,7.3
			c0,1.5-0.5,2.4-2.3,2.4s-2.2-1-2.2-2.5c0-4,0-8,0-11.9c0-1.4,0.1-2.8,1.8-3.1C151.4,11.5,152.1,12.6,152.4,14.3z"/>
		<path class="st0" d="M105.7,11.8c1.6,0,3.2,0.3,4.6,1c1,0.5,2,1,1.4,2.3c-0.6,1.4-1.7,1.1-2.8,0.7c-1.4-0.5-2.8-1.1-4.3-0.8
			c-1.1,0.2-2.2,0.5-2.4,1.9c-0.1,1.5,1,1.8,2.1,2c1.4,0.3,2.9,0.5,4.3,0.9c1.8,0.5,3.3,1.5,3.5,3.5c0.3,2.1-0.4,4-2.3,5
			c-3.7,1.9-7.4,1.5-11.1-0.2c-1-0.5-1.3-1.4-0.8-2.3s1.3-1,2.2-0.5c1.9,0.9,3.9,1.3,6.1,0.9c1-0.2,1.9-0.6,2-1.8
			c0-1.2-0.8-1.5-1.8-1.7c-1.5-0.3-3-0.6-4.5-1c-1.9-0.5-3.4-1.5-3.7-3.6c-0.3-2.3,0.6-4.1,2.6-5.2
			C102.1,12.1,103.6,11.8,105.7,11.8z"/>
		<path class="st0" d="M116.6,20.3c0-0.7-0.1-1.4,0-2c0.2-1.8,0-3.1-2.3-3c-1,0.1-1.3-0.7-1.3-1.6c0-1,0.5-1.6,1.4-1.5
			c2.2,0.2,2.4-1,2.2-2.7c-0.2-1.5,0.2-2.7,2.1-2.7c1.6,0,2.3,0.8,2.3,2.8c0,2.5,0,2.5,2.5,2.5c0.7,0,1.5-0.1,2.1,0.3
			c0.7,0.4,0.8,1.1,0.6,1.8c-0.1,0.7-0.4,1.1-1.2,1.2c-0.4,0-0.7,0.1-1.1,0.1c-3.1,0.3-3.1,0.3-3.1,3.3c0,1.3,0,2.6,0,3.9
			c0.1,2.4,1,3.3,3.5,3.1c1-0.1,2.2-0.7,2.4,1c0.2,1.5-0.5,2.3-2.1,2.6c-5.2,0.8-8.1-1.6-8.1-6.8C116.6,21.8,116.6,21.1,116.6,20.3z
			"/>
		<path class="st0" d="M94.3,20.5c0,2.2,0,4.4,0,6.6c0,1.4-0.6,2.2-2.1,2.2c-1.5,0.1-2.3-0.7-2.3-2c-0.1-4.5-0.1-8.9,0-13.4
			c0-1.4,0.9-2.2,2.3-2.1c1.3,0.1,2.1,0.8,2.1,2.2C94.2,16.2,94.3,18.4,94.3,20.5z"/>
		<path class="st0" d="M92,3.8c1.5,0,2.7,1.1,2.7,2.6S93.5,9.1,92,9.1S89.5,8,89.4,6.6C89.4,5,90.4,3.8,92,3.8z"/>
	</g>
</g>
</svg>
