<svg id="Ebene_1" data-name="Ebene 1" xmlns="http://www.w3.org/2000/svg" viewBox="0 0 171.37 54.94"><defs><style>.cls-1{fill:#282828;}</style></defs><path class="cls-1" d="M54.37,0l-1,7.2H26.43q-7.48,0-11.08,3.56T10.74,21.6L9.08,33.26q-1,7.27,1.51,10.88t9.8,3.6h7.92q7.69,0,10.76-1.7c2-1.12,3.28-3.25,3.71-6.37L44,30.89H25.86l.93-7.2h26.5L51.2,38.38a25.13,25.13,0,0,1-2.45,8.35,12.73,12.73,0,0,1-4.71,5,20.17,20.17,0,0,1-7.38,2.48,68.35,68.35,0,0,1-10.44.69H20.46A27.14,27.14,0,0,1,10,53.17a15.65,15.65,0,0,1-6.59-4.89A16.48,16.48,0,0,1,.33,40.79a32.34,32.34,0,0,1,0-9.47l1.08-7.7a35.47,35.47,0,0,1,2.66-9.76A22.8,22.8,0,0,1,9.37,6.41a22.37,22.37,0,0,1,8.06-4.75A33.57,33.57,0,0,1,28.52,0Z"/><path class="cls-1" d="M114.13,0l-1,7.2H86.19q-7.48,0-11.09,3.56T70.5,21.6L68.84,33.26q-1,7.27,1.51,10.88t9.79,3.6h7.92q7.71,0,10.77-1.7c2-1.12,3.27-3.25,3.71-6.37l1.22-8.78H85.62l.93-7.2h26.5L111,38.38a25.37,25.37,0,0,1-2.45,8.35,12.73,12.73,0,0,1-4.71,5,20.24,20.24,0,0,1-7.38,2.48A68.35,68.35,0,0,1,86,54.94H80.22a27.14,27.14,0,0,1-10.48-1.77,15.65,15.65,0,0,1-6.59-4.89,16.48,16.48,0,0,1-3.06-7.49,32.34,32.34,0,0,1,0-9.47l1.08-7.7a35.47,35.47,0,0,1,2.66-9.76,22.8,22.8,0,0,1,5.26-7.45,22.28,22.28,0,0,1,8.06-4.75A33.57,33.57,0,0,1,88.28,0Z"/><path class="cls-1" d="M133.93,54l6.55-46.8h-21.6l1-7.2h51.48l-1,7.2h-21.6L142.21,54Z"/></svg>